<svg width="26" height="29" fill="none" xmlns="http://www.w3.org/2000/svg"><path d="M20.487 29H5.481a5.484 5.484 0 01-5.365-4.36 5.478 5.478 0 01.053-2.47L3.21 9.76a1 1 0 011-.76h16.757a1 1 0 011 .7l3.782 12.16a5.488 5.488 0 01-.83 4.91A5.413 5.413 0 0120.487 29zM4.961 11L2.07 22.65A3.499 3.499 0 005.44 27h15.006a3.443 3.443 0 002.791-1.42 3.499 3.499 0 00.53-3.13L20.249 11H4.96z" fill="#000"/><path d="M16.966 14a1 1 0 01-1-1V5a3 3 0 00-5.124-2.121A3 3 0 009.963 5v8a1 1 0 01-2 0V5a4.999 4.999 0 015.001-5 5.003 5.003 0 015.002 5v8a1 1 0 01-1 1z" fill="#000"/></svg>