<svg width="27" height="27" fill="none" xmlns="http://www.w3.org/2000/svg"><path d="M23.625 7.594H9.281a.844.844 0 110-1.688h14.344a.844.844 0 110 1.688zm-17.719 0H3.375a.844.844 0 110-1.688h2.531a.844.844 0 010 1.688zm11.813 6.75H3.375a.844.844 0 110-1.688h14.344a.844.844 0 010 1.688zm-8.438 6.75H3.375a.844.844 0 110-1.688h5.906a.844.844 0 110 1.688z" fill="#000"/><path d="M7.594 9.281a2.531 2.531 0 110-5.062 2.531 2.531 0 010 5.062zm0-3.375a.844.844 0 100 1.688.844.844 0 000-1.688zm11.812 10.125a2.531 2.531 0 110-5.062 2.531 2.531 0 010 5.062zm0-3.375a.844.844 0 100 1.688.844.844 0 000-1.688zm-8.437 10.125a2.532 2.532 0 110-5.063 2.532 2.532 0 010 5.063zm0-3.375a.844.844 0 100 1.688.844.844 0 000-1.688z" fill="#000"/><path d="M23.625 14.344h-2.531a.844.844 0 010-1.688h2.531a.843.843 0 110 1.688zm0 6.75H12.656a.844.844 0 010-1.688h10.969a.843.843 0 110 1.688z" fill="#000"/></svg>