<svg version="1.0" xmlns="http://www.w3.org/2000/svg" width="206.667" height="209.333" viewBox="0 0 155 157"><path d="M61.5 2.4C32.6 9.1 10.2 30.5 2.4 59.1-.1 68-.1 89 2.3 98c3.2 11.5 10.2 24.2 17.9 32.5 8.2 8.8 13.8 13 23.5 17.9 20.2 10.1 47.4 10.1 67.6 0 9.7-4.9 15.3-9.1 23.5-17.9 7.7-8.3 14.7-21 17.9-32.5 2.4-9 2.4-30-.1-38.9-7.2-26.2-26.4-46.3-52.1-54.7-9.9-3.3-29.2-4.2-39-2zm36 2.1c31.1 8.5 53.8 36.4 56.2 69.2 2.4 32.1-17.5 63.8-47.7 76-17.6 7.1-39.4 7.1-57 0-30.2-12.2-50.1-43.9-47.7-76C2.1 63 4.2 55.4 8.9 45.5c10.5-22 29-36.6 53.1-42 8.2-1.8 27-1.3 35.5 1z"/><path d="M61 10c-.9.6-1 1-.3 1 1.3 0 3.5 6.8 3.5 10.6 0 1.6.5 2 2.4 1.6 2.5-.4 3-1.3 1.7-2.6-.5-.4-1.3-3.1-1.8-5.9-1.1-5.3-2.6-6.6-5.5-4.7zm18.5 7c0 4.4.2 5 2.1 5 1.8 0 2.1-.6 2-3.8-.1-2.7.3-3.7 1.4-3.7 1.8 0 2.6 4.1 1.1 5.9-.9 1.1-.6 1.5 1.4 1.8 2.3.5 2.5.2 2.5-2.8 0-3.6 1.5-5.3 3.3-3.5.7.7.7 1.8-.2 3.7-1.3 3-1.3 2.9 1.4 3.8 1.8.5 2 .1 2-4.1v-4.7L89 13.4c-4.1-.7-7.9-1.3-8.5-1.3-.5-.1-1 2.1-1 4.9zm33 1c.3.5 1 1 1.6 1 .5 0 .9-.5.9-1 0-.6-.7-1-1.6-1-.8 0-1.2.4-.9 1zm-66.7 3.2c-4.7 3.7-.9 10.1 4.6 7.7 3.2-1.5 3.7-3 2.2-6-1.3-2.8-4.4-3.5-6.8-1.7zm3.2 1.7c0 1.2-2 2.5-2.7 1.8-.7-.7.6-2.7 1.8-2.7.5 0 .9.4.9.9zm2.2 4.3c-.6.6-1.9.7-2.9.4-1.6-.7-1.6-.9.7-2.1 2.6-1.4 4.1-.2 2.2 1.7zm57.8-5.3c0 1.1-.7 2.7-1.6 3.6-1.8 1.8-1.8 1.7 1.4 3.4 1.9 1 2.3 1 2.1-.1-.2-.7.4-2.7 1.4-4.5 1.5-2.8 1.5-3.2.1-3.7-2.6-1-3.4-.7-3.4 1.3zm-81.6 8.2c-2.6 2.8-2.7 3.1-.7 2.5 1.9-.6 2.3-.2 3.2 3 .6 2.1.9 3.9.8 4-.1.2-2.1 0-4.4-.3-3.2-.4-4-.9-3.6-2.2.2-.9-.9 0-2.6 1.9-3.7 4.1-3.9 5.3-.8 3.9 1.4-.6 4.2-.7 7.9-.1 3.2.5 6 .7 6.2.5.2-.2-.3-2.5-1.1-5.1-.8-2.6-1.3-6.2-1.1-8 .5-4-.1-4-3.8-.1zm96.4 1.5l.4 3.6-3.3-.7c-3-.7-3.2-.6-2 .9.9 1.1 2.1 1.4 3.9.9 2.3-.5 2.4-.4 1.9 1.9-.5 1.8-.1 3 1.3 4.3 2 1.8 2 1.7 2-1.8 0-3.9.8-4.4 4.1-2.7 1 .6 1.9.7 1.9.2 0-1.6-2.4-3.2-4.8-3.2-1.7 0-2.2-.5-2-1.8.3-1.8-1.7-5.2-3.1-5.2-.4 0-.5 1.6-.3 3.6zM46 52c0 .6 3.6 1 8.9 1h9l-4.4 9.7-4.4 9.7-6.1-.3c-11.6-.5-19.5 7-19.5 18.4 0 7.4 2.8 12.4 8.9 16 16.4 9.6 35-8.7 25.6-25.3-1.3-2.3-2.6-4.2-2.9-4.2-.3-.1-1.6-.9-2.8-1.9L56 73.2l4.5-10.1C63 57.5 65 52.5 65 52c0-.6-4-1-9.5-1-5.7 0-9.5.4-9.5 1zm7.5 21.9c.3.5-.6 3.6-2.1 6.8-3.7 8.4-4.7 11-3.6 9.8.5-.6 2.3-4.1 4-8 1.7-3.8 3.5-7.1 4.1-7.3 2-.7 7.9 6.3 9.1 10.7 1.9 7.2-.5 14.1-6.7 18.8-3.2 2.4-4.5 2.8-10.4 2.8-5.3 0-7.4-.5-9.6-2.1-3.8-2.8-7.1-7.9-7.9-12.1-1.3-6.9 3.6-16.1 10.1-18.9 3.5-1.5 12.1-1.8 13-.5z"/><path d="M96.3 57.7c3.7.4 3.7.5 3.7 4.9V67H81.5c-10.2 0-18.5.3-18.5.6 0 .4 3 6 6.6 12.5 5.4 9.8 7 11.9 8.8 11.9 1.8 0 2.5.9 3.5 4 4.6 15.3 24.8 18.6 33.3 5.5l2.3-3.5h11.3c8.9 0 11.2.3 11.2 1.4 0 3.3-8.4 17.7-13.7 23.6-3.2 3.5-4.8 5.7-3.5 4.9 3.9-2.7 11.9-13.5 15.1-20.4 1.8-3.6 3.9-9.6 4.7-13.3 1.6-7 2-23.7.7-28.4-.5-1.7-.8 3-.8 11.5 0 7.8-.3 15.4-.8 16.9L141 97h-12.5c-7.4 0-12.5.4-12.5 1 0 2.1-6.4 8-10.5 9.6-9.7 3.6-20.4-2.4-22.9-12.9L82 92h8.4c4.7 0 8.8-.5 9.1-1 .4-.6-2.7-1-8.5-1h-9l.6-2.8c3.3-14 20.3-18.7 29.8-8.2 2 2.2 3.6 4.5 3.6 5 0 .6 2.1.9 4.8.8l4.7-.1-4.2-.4c-2.4-.2-4.3-.8-4.3-1.3 0-1.9-5.7-7.4-9.5-9.1-10.3-4.7-22.3 1-25.6 12.1-1 3.1-1.7 4-3.5 4s-3.3-2-8.2-11l-6-11H101v-9.9l3.8-.4c2-.2.1-.4-4.3-.4-4.4 0-6.3.2-4.2.4zm-84.8 9.5c-1.2 7-.7 19.9.9 27.2 2.9 12.3 11.6 26.8 20.7 34.3 1.9 1.5.4-.5-3.4-4.6-7.5-8.3-13.7-19.6-16.3-30.1-1.2-4.8-1.5-9.6-1.2-18.7.2-6.8.3-12.3.2-12.3-.1 0-.5 1.9-.9 4.2z"/><path d="M117 91c0 .6 3.3 1 8 1s8-.4 8-1-3.3-1-8-1-8 .4-8 1zm-24.9 43.4c-1.1 1.4-1.1 1.6.2 1.6 1.7 0 2.9 4.7 1.3 5.3-.6.2-.8.7-.5 1.1.3.4 1.9.1 3.5-.5 2.1-.9 2.4-1.3 1.3-1.6-.9-.2-2.3-2-3-4-1.3-3.2-1.5-3.4-2.8-1.9zm-33.6.6c-.4.7.2.9 1.7.5 3.1-.8 6.1 2.1 3.7 3.6-.8.5-2.3.9-3.4.9s-2.6.4-3.4.9c-1.1.7-.4 1.2 2.5 2 4.8 1.4 5.7 1.4 4.9.1-.3-.6-1.6-1-2.8-1.1-1.6-.1-1.4-.3 1.1-1 3.4-1 4.2-3.5 2-5.7-1.5-1.5-5.5-1.6-6.3-.2zm22.9 1.4c-1 .8-1.6 1.8-1.1 2.2.4.4.7.2.7-.4 0-1.5 4.6-1.6 5.5-.1.4.6-.1 1.7-1.1 2.5-1.2 1-1.4 1.4-.5 1.2.8-.3 1.9-1.2 2.5-2.2.9-1.3.7-2-.8-3.2-2.4-1.7-2.7-1.7-5.2 0zm-12.2.8c-1.9 1.9-1.4 5.6.9 6.8 4.7 2.5 9.3-1.5 6.9-6-1.2-2.3-5.8-2.8-7.8-.8zm6.6 2.9c.3 2.8-1.6 4.3-4.3 3.3-1.5-.6-2.1-4.5-.8-5.8 1.6-1.6 4.8-.1 5.1 2.5zm5.2 3.4c-1.1 1.3-.9 1.5 1.6 1.4 1.6 0 3.8-.4 4.9-.9 1.9-.8 1.9-.9-.2-.9-1.2-.1-2.8-.3-3.6-.6-.7-.3-2 .1-2.7 1z"/></svg>