<svg width="25" height="25" fill="none" xmlns="http://www.w3.org/2000/svg"><path d="M22.758 25c.599 0 1.162-.233 1.585-.656A2.23 2.23 0 0025 22.757c0-.598-.233-1.162-.657-1.585l-4.533-4.533a2.227 2.227 0 00-1.585-.657 2.23 2.23 0 00-1.586.656 2.247 2.247 0 000 3.172l4.533 4.534a2.23 2.23 0 001.586.656zm-4.533-8.109c.356 0 .69.139.942.39l4.533 4.534c.252.252.39.586.39.942s-.138.692-.39.944c-.503.504-1.381.504-1.885 0l-4.533-4.534a1.335 1.335 0 01.943-2.276z" fill="#000"/><path d="M16.504 18.223a.454.454 0 00.44-.34c.062-.236.176-.439.338-.602a1.32 1.32 0 01.602-.338.456.456 0 00.205-.76l-1.454-1.455a.449.449 0 00-.344-.133.458.458 0 00-.33.167 8.511 8.511 0 01-1.199 1.2.458.458 0 00-.034.673l1.455 1.455a.455.455 0 00.32.133zm.478-1.862a2.112 2.112 0 00-.621.62l-.644-.643c.216-.197.424-.405.621-.622l.644.645z" fill="#000"/><path d="M9.394 18.787c5.18 0 9.393-4.214 9.393-9.393C18.787 4.214 14.574 0 9.394 0 4.214 0 0 4.214 0 9.394s4.214 9.393 9.394 9.393zm0-17.878c4.678 0 8.484 3.806 8.484 8.485 0 4.678-3.806 8.484-8.484 8.484S.909 14.072.909 9.394C.91 4.715 4.716.909 9.394.909z" fill="#000"/><path d="M14.31 9.402a.454.454 0 00.455-.455 5.824 5.824 0 00-5.818-5.818.454.454 0 100 .909 4.915 4.915 0 014.909 4.909c0 .251.203.455.454.455z" fill="#000"/></svg>