<svg width="30" height="30" fill="none" xmlns="http://www.w3.org/2000/svg"><path d="M29.32 14.168c-.035 3.715-.99 6.621-2.976 9.146-2.133 2.713-4.91 4.436-8.309 5.133-2.625.533-5.18.3-7.687-.61a11.851 11.851 0 01-1.623-.732.528.528 0 00-.47-.04c-2.372.767-4.751 1.529-7.13 2.285-.105.035-.246.134-.328.058-.094-.094.023-.234.058-.346.475-1.412.95-2.83 1.43-4.242.293-.861.574-1.716.88-2.572.081-.223.052-.393-.071-.598a13.58 13.58 0 01-1.365-3.287 13.77 13.77 0 01-.194-6.55c.504-2.391 1.559-4.524 3.182-6.364C6.68 3.223 9.1 1.752 11.977 1.043a13.73 13.73 0 015.548-.217c2.438.399 4.635 1.365 6.551 2.924a14.103 14.103 0 014.36 6.059c.503 1.306.902 3.445.884 4.359zM4.371 25.869c1.453-.469 2.842-.914 4.219-1.365a.514.514 0 01.486.058 9.98 9.98 0 001.682.88c1.904.808 3.885 1.1 5.93.837 2.507-.322 4.71-1.33 6.562-3.082 2.332-2.209 3.58-4.916 3.691-8.115.106-3.135-.902-5.889-3.005-8.227-1.998-2.22-4.506-3.486-7.465-3.802-2.573-.276-4.98.281-7.207 1.617a11.514 11.514 0 00-4.377 4.687c-1.12 2.174-1.5 4.483-1.178 6.903.24 1.828.896 3.51 1.951 5.021.117.17.152.31.082.51-.217.598-.41 1.201-.615 1.799-.246.738-.486 1.476-.756 2.28z" fill="#fff"/><path d="M8.262 11.408c.029-1.394.521-2.431 1.453-3.258.299-.27.668-.386 1.084-.328.176.024.351.041.527.03.328-.018.55.14.662.427.393 1.02.774 2.04 1.155 3.065.128.351-.094.627-.282.879-.216.298-.48.562-.738.826-.264.27-.299.422-.117.75 1.06 1.928 2.549 3.41 4.57 4.324.07.03.14.07.211.105.27.123.51.094.715-.14.375-.44.785-.844 1.13-1.307.23-.304.387-.357.733-.205 1.032.445 1.998 1.008 2.983 1.553.181.1.246.252.24.463-.053 1.728-1.043 2.63-2.783 3.03-.844.192-1.623-.018-2.397-.3-1.623-.586-3.187-1.277-4.5-2.437a16.498 16.498 0 01-2.742-3.112c-.598-.89-1.219-1.763-1.564-2.8-.2-.551-.346-1.114-.34-1.565z" fill="#fff"/></svg>